/* XPM */
static char * exit_xpm[] = {
"64 64 496 2",
"  	c #2C9D36",
". 	c #2C9A35",
"+ 	c #2A9031",
"@ 	c #277E2B",
"# 	c #246422",
"$ 	c #204317",
"% 	c #1E200E",
"& 	c #1D000A",
"* 	c #1D0009",
"= 	c #1D0B0B",
"- 	c #1D0E0B",
"; 	c #2C9733",
"> 	c #2B8D30",
", 	c #2A7C2A",
"' 	c #296322",
") 	c #284419",
"! 	c #272412",
"~ 	c #270A0F",
"{ 	c #27090F",
"] 	c #271410",
"^ 	c #271610",
"/ 	c #2D852E",
"( 	c #31752A",
"_ 	c #345F24",
": 	c #37451E",
"< 	c #392E1A",
"[ 	c #392018",
"} 	c #391F18",
"| 	c #392419",
"1 	c #392519",
"2 	c #3A6928",
"3 	c #435926",
"4 	c #4A4725",
"5 	c #4D3924",
"6 	c #4F3324",
"7 	c #4E3524",
"8 	c #505129",
"9 	c #59492B",
"0 	c #5F442D",
"a 	c #61422D",
"b 	c #60432D",
"c 	c #654B30",
"d 	c #6B4C33",
"e 	c #6D4D34",
"f 	c #725136",
"g 	c #745238",
"h 	c #745237",
"i 	c #3A2019",
"j 	c #61432D",
"k 	c #6E4D34",
"l 	c #755338",
"m 	c #775539",
"n 	c #775439",
"o 	c #3A2018",
"p 	c #4E3423",
"q 	c #5F422D",
"r 	c #6C4C33",
"s 	c #735137",
"t 	c #1E0E0C",
"u 	c #372418",
"v 	c #4B3322",
"w 	c #5C402B",
"x 	c #684931",
"y 	c #6E4E34",
"z 	c #704F35",
"A 	c #6F4F35",
"B 	c #6E4E35",
"C 	c #1E0F0C",
"D 	c #26150F",
"E 	c #352117",
"F 	c #472F20",
"G 	c #563B28",
"H 	c #61432E",
"I 	c #664830",
"J 	c #674831",
"K 	c #664730",
"L 	c #64462F",
"M 	c #63462F",
"N 	c #62452F",
"O 	c #63452F",
"P 	c #1F0F0C",
"Q 	c #25140F",
"R 	c #321F15",
"S 	c #412B1D",
"T 	c #4F3624",
"U 	c #583D29",
"V 	c #593E2A",
"W 	c #563C29",
"X 	c #543B28",
"Y 	c #543A28",
"Z 	c #533A28",
"` 	c #24140F",
" .	c #2F1D14",
"..	c #3E281B",
"+.	c #4A3222",
"@.	c #523826",
"#.	c #543A27",
"$.	c #4D3524",
"%.	c #483122",
"&.	c #452F20",
"*.	c #442F20",
"=.	c #533927",
"-.	c #4F3625",
";.	c #473021",
">.	c #3F2A1E",
",.	c #3A271B",
"'.	c #39261B",
").	c #3A271C",
"!.	c #3C281C",
"~.	c #3D291D",
"{.	c #3C291C",
"].	c #3B281C",
"^.	c #39271B",
"/.	c #38261B",
"(.	c #422C1D",
"_.	c #583C29",
":.	c #593D29",
"<.	c #523927",
"[.	c #36251A",
"}.	c #36241A",
"|.	c #3E2A1D",
"1.	c #37251A",
"2.	c #342319",
"3.	c #3F2A1D",
"4.	c #352319",
"5.	c #473020",
"6.	c #573C28",
"7.	c #60432E",
"8.	c #3F2B1E",
"9.	c #3E291D",
"0.	c #432D1F",
"a.	c #452E20",
"b.	c #462F21",
"c.	c #462F20",
"d.	c #382418",
"e.	c #4C3423",
"f.	c #5D402B",
"g.	c #674830",
"h.	c #674931",
"i.	c #5F432D",
"j.	c #432E20",
"k.	c #493122",
"l.	c #4B3323",
"m.	c #4D3424",
"n.	c #4C3323",
"o.	c #442E20",
"p.	c #6A4B32",
"q.	c #4F3524",
"r.	c #503625",
"s.	c #483021",
"t.	c #422D1F",
"u.	c #3A2519",
"v.	c #503724",
"w.	c #61442E",
"x.	c #6C4D34",
"y.	c #553B28",
"z.	c #453021",
"A.	c #513725",
"B.	c #4A3223",
"C.	c #513625",
"D.	c #402B1E",
"E.	c #513726",
"F.	c #553C28",
"G.	c #4F3525",
"H.	c #4B3223",
"I.	c #4D3423",
"J.	c #61442D",
"K.	c #452F21",
"L.	c #4E3424",
"M.	c #483121",
"N.	c #442D1F",
"O.	c #4E3324",
"P.	c #4C3123",
"Q.	c #4B2F22",
"R.	c #4A2F22",
"S.	c #4A3023",
"T.	c #4A3123",
"U.	c #473022",
"V.	c #422C20",
"W.	c #3C281D",
"X.	c #4B3022",
"Y.	c #4B3023",
"Z.	c #4B3123",
"`.	c #483022",
" +	c #573E29",
".+	c #59412A",
"++	c #5A412A",
"@+	c #5B412A",
"#+	c #5A3F29",
"$+	c #583D27",
"%+	c #543925",
"&+	c #4C3321",
"*+	c #432D1E",
"=+	c #634C30",
"-+	c #6D5736",
";+	c #755F3A",
">+	c #79613B",
",+	c #7A5F39",
"'+	c #795A34",
")+	c #75542F",
"!+	c #6E4C2A",
"~+	c #624325",
"{+	c #533820",
"]+	c #46301E",
"^+	c #473121",
"/+	c #503525",
"(+	c #77623D",
"_+	c #8A7548",
":+	c #98814E",
"<+	c #9E854F",
"[+	c #A0824B",
"}+	c #9D7A43",
"|+	c #976F3A",
"1+	c #8D6432",
"2+	c #7D562A",
"3+	c #674624",
"4+	c #513720",
"5+	c #493221",
"6+	c #A38E56",
"7+	c #B59D5F",
"8+	c #BEA260",
"9+	c #C09E5A",
"0+	c #BD9450",
"a+	c #B58644",
"b+	c #A97839",
"c+	c #946730",
"d+	c #795327",
"e+	c #5C3F22",
"f+	c #4C3422",
"g+	c #523928",
"h+	c #61442F",
"i+	c #CAAF69",
"j+	c #D4B56A",
"k+	c #D7B064",
"l+	c #D3A559",
"m+	c #CB964B",
"n+	c #BD863F",
"o+	c #A67334",
"p+	c #875C2A",
"q+	c #644524",
"r+	c #4E3622",
"s+	c #513928",
"t+	c #60442F",
"u+	c #4A2E22",
"v+	c #DFBB6C",
"w+	c #E2B766",
"x+	c #DFAC5B",
"y+	c #D69E4E",
"z+	c #C88E42",
"A+	c #AF7A37",
"B+	c #8E622C",
"C+	c #694825",
"D+	c #4F3722",
"E+	c #503828",
"F+	c #5F432F",
"G+	c #4A3022",
"H+	c #7A5F38",
"I+	c #E5B561",
"J+	c #E3AC58",
"K+	c #DBA04D",
"L+	c #CD9143",
"M+	c #B47D38",
"N+	c #92652E",
"O+	c #6B4A25",
"P+	c #503722",
"Q+	c #503827",
"R+	c #5A3F28",
"S+	c #E1A752",
"T+	c #DA9D4A",
"U+	c #CD9142",
"V+	c #B47E39",
"W+	c #4A3124",
"X+	c #4B3224",
"Y+	c #593D27",
"Z+	c #986F3A",
"`+	c #D49746",
" @	c #C78C40",
".@	c #AF7B38",
"+@	c #8F632E",
"@@	c #694925",
"#@	c #4B3324",
"$@	c #4C3324",
"%@	c #583C26",
"&@	c #704E2B",
"*@	c #8F6433",
"=@	c #AA783A",
"-@	c #BD873F",
";@	c #C78D40",
">@	c #BB843C",
",@	c #A57435",
"'@	c #865E2C",
")@	c #4D3425",
"!@	c #553A26",
"~@	c #684728",
"{@	c #80582D",
"]@	c #966831",
"^@	c #A77435",
"/@	c #B07A37",
"(@	c #B47E38",
"_@	c #B07B38",
":@	c #92662F",
"<@	c #785328",
"[@	c #5B3F22",
"}@	c #4B3421",
"|@	c #4E3525",
"1@	c #533825",
"2@	c #5E4026",
"3@	c #6E4B28",
"4@	c #7D552A",
"5@	c #885E2C",
"6@	c #8F622D",
"7@	c #875E2C",
"8@	c #634422",
"9@	c #4F361F",
"0@	c #553925",
"a@	c #5A3D25",
"b@	c #604224",
"c@	c #654524",
"d@	c #684824",
"e@	c #6A4924",
"f@	c #634423",
"g@	c #583D20",
"h@	c #4C341D",
"i@	c #432E1D",
"j@	c #463021",
"k@	c #4D3422",
"l@	c #4A3221",
"m@	c #48311F",
"n@	c #47301E",
"o@	c #46301D",
"p@	c #442E1D",
"q@	c #3F2A1B",
"r@	c #3A271A",
"s@	c #3B281B",
"t@	c #432D20",
"u@	c #3D291E",
"v@	c #3A271D",
"w@	c #39261D",
"x@	c #38251C",
"y@	c #35241B",
"z@	c #34231A",
"A@	c #472F22",
"B@	c #432D21",
"C@	c #412B20",
"D@	c #402B20",
"E@	c #3E291F",
"F@	c #37251B",
"G@	c #422C1F",
"H@	c #3B271C",
"I@	c #6C4C34",
"J@	c #3A2619",
"K@	c #503725",
"L@	c #62442E",
"M@	c #644730",
"N@	c #1E0E0B",
"O@	c #694A32",
"P@	c #6A4B33",
"Q@	c #62452E",
"R@	c #533A27",
"S@	c #362217",
"T@	c #593E29",
"U@	c #63452E",
"V@	c #5B3F2B",
"W@	c #37241A",
"X@	c #39251A",
"Y@	c #40291D",
"Z@	c #462E20",
"`@	c #493021",
" #	c #4A3122",
".#	c #412A1D",
"+#	c #3A261B",
"@#	c #352219",
"##	c #4A3121",
"$#	c #412A1E",
"%#	c #3B261B",
"&#	c #362319",
"*#	c #1F100C",
"=#	c #311E15",
"-#	c #41291C",
";#	c #4E3323",
">#	c #563827",
",#	c #4F3224",
"'#	c #43281E",
")#	c #361D17",
"!#	c #2F1614",
"~#	c #311714",
"{#	c #361C17",
"]#	c #3C2119",
"^#	c #3E231B",
"/#	c #40241B",
"(#	c #3C211A",
"_#	c #371D17",
":#	c #311815",
"<#	c #2D1413",
"[#	c #3F241B",
"}#	c #20100D",
"|#	c #23130E",
"1#	c #2B1811",
"2#	c #352016",
"3#	c #3E261A",
"4#	c #432A1D",
"5#	c #43291D",
"6#	c #3D241A",
"7#	c #331B15",
"8#	c #291110",
"9#	c #230A0D",
"0#	c #250B0D",
"a#	c #29100F",
"b#	c #2E1511",
"c#	c #301713",
"d#	c #311713",
"e#	c #2E1512",
"f#	c #2A1110",
"g#	c #250C0E",
"h#	c #22080C",
"i#	c #301712",
"j#	c #21070C",
"k#	c #20100C",
"l#	c #21120D",
"m#	c #23170E",
"n#	c #271E10",
"o#	c #2B2412",
"p#	c #2D2813",
"q#	c #2C2913",
"r#	c #282711",
"s#	c #21240E",
"t#	c #1A210C",
"u#	c #161F0A",
"v#	c #17200A",
"w#	c #1A210B",
"x#	c #1D220D",
"y#	c #1F220D",
"z#	c #1F230D",
"A#	c #1B210C",
"B#	c #18200B",
"C#	c #151F0A",
"D#	c #18200A",
"E#	c #1E0D0B",
"F#	c #1E130B",
"G#	c #1D1E0D",
"H#	c #1C2B0F",
"I#	c #1B3611",
"J#	c #1A3D13",
"K#	c #184113",
"L#	c #164213",
"M#	c #144213",
"N#	c #124112",
"O#	c #114112",
"P#	c #134112",
"Q#	c #134113",
"R#	c #134213",
"S#	c #190508",
"T#	c #181509",
"U#	c #18290D",
"V#	c #173E13",
"W#	c #154F18",
"X#	c #145A1B",
"Y#	c #14611D",
"Z#	c #15631E",
"`#	c #16631E",
" $	c #17621E",
".$	c #16621E",
"+$	c #110004",
"@$	c #121707",
"#$	c #14340F",
"$$	c #164F18",
"%$	c #19641F",
"&$	c #1C7325",
"*$	c #1E7B28",
"=$	c #1F7D29",
"-$	c #207E29",
";$	c #207D29",
">$	c #217D29",
",$	c #070001",
"'$	c #0A1905",
")$	c #103C10",
"!$	c #185B1C",
"~$	c #1F7325",
"{$	c #24842C",
"]$	c #278D2F",
"^$	c #289031",
"/$	c #288F30",
"($	c #000000",
"_$	c #041A04",
":$	c #0E4011",
"<$	c #19611E",
"[$	c #217B28",
"}$	c #2A9633",
"|$	c #2B9934",
"1$	c #021A04",
"2$	c #0D4111",
"3$	c #19631F",
"4$	c #227E29",
"5$	c #2D9D36",
"6$	c #2C9C36",
"7$	c #2C9C35",
"  . + @ # $ % & * = - - - - - - - - - - - - - - - - - - - - - - - - - - - - - - - - - - - - - - - - - - - - = * & % $ # @ + .   ",
". ; > , ' ) ! ~ { ] ^ ^ ^ ^ ^ ^ ^ ^ ^ ^ ^ ^ ^ ^ ^ ^ ^ ^ ^ ^ ^ ^ ^ ^ ^ ^ ^ ^ ^ ^ ^ ^ ^ ^ ^ ^ ^ ^ ^ ^ ^ ^ ^ ^ ] { ~ ! ) ' , > ; . ",
"+ > / ( _ : < [ } | 1 1 1 1 1 1 1 1 1 1 1 1 1 1 1 1 1 1 1 1 1 1 1 1 1 1 1 1 1 1 1 1 1 1 1 1 1 1 1 1 1 1 1 1 | } [ < : _ ( / > + ",
"@ , ( 2 3 4 5 6 6 7 7 7 7 7 7 7 7 7 7 7 7 7 7 7 7 7 7 7 7 7 7 7 7 7 7 7 7 7 7 7 7 7 7 7 7 7 7 7 7 7 7 7 7 7 7 6 6 5 4 3 2 ( , @ ",
"# ' _ 3 8 9 0 a a b b b b b b b b b b b b b b b b b b b b b b b b b b b b b b b b b b b b b b b b b b b b b b a a 0 9 8 3 _ ' # ",
"$ ) : 4 9 c d e e e e e e e e e e e e e e e e e e e e e e e e e e e e e e e e e e e e e e e e e e e e e e e e e e d c 9 4 : ) $ ",
"% ! < 5 0 d f g g h h h h h h h h h h h h h h h h h h h h h h h h h h h h h h h h h h h h h h h h h h h h h h g g f d 0 5 < ! % ",
"& ~ i 6 j k l m m n n n n n n n n n n n n n n n n n n n n n n n n n n n n n n n n n n n n n n n n n n n n n n m m l k j 6 i ~ & ",
"* { o 6 j k l m m n n n n n n n n n n n n n n n n n n n n n n n n n n n n n n n n n n n n n n n n n n n n n n m m l k j 6 o { * ",
"= ] | p q r s l l h h h h h h h h h h h h h h h h h h h h h h h h h h h h h h h h h h h h h h h h h h h h h h l l s r q p | ] = ",
"t ^ u v w x y z A B y y y y y y y y y y y y y y y y y y y y y y y y y y y y y y y y y y y y y y y y y y y y B A z y x w v u ^ t ",
"C D E F G H I J K L M N N N N N N N N N O O O O N N N N N N N N N N N N N N N N O O O O N N N N N N N N N M L K J I H G F E D C ",
"P Q R S T U w w V W X Y Z Y Y Y Y Y Y Y Y Y Y Y Y Y Y Y Y Y Y Y Y Y Y Y Y Y Y Y Y Y Y Y Y Y Y Y Y Y Y Z Y X W V w w U T S R Q P ",
"P `  ...+.@.#.@.$.%.&.*.*.*.&.&.&.&.*.*.*.*.*.*.*.*.&.&.&.&.&.&.&.&.&.&.&.&.*.*.*.*.*.*.*.*.&.&.&.&.*.*.*.&.%.$.@.#.@.+... .` P ",
"P `  ...+.@.=.-.;.>.,.'.).!.~.~.~.~.{.].^././.^.].{.~.~.~.~.~.~.~.~.~.~.~.~.{.].^.'.'.^.].{.~.~.~.~.!.).'.,.>.;.-.=.@.+... .` P ",
"P Q R (.T _.:.<.%.~.[.}.'.~.|.>.>.|.~.,.1.2.2.1.,.~.|.3.3.3.3.3.3.3.3.3.3.|.~.,.1.4.4.1.,.~.|.>.>.|.~.'.}.[.~.%.<.:._.T (.R Q P ",
"C D E 5.6.b 7.V $.8./.'.9.0.a.b.b.a.0.|.,.}.}.,.|.0.a.c.c.c.c.c.c.c.c.c.c.a.0.3.,.}.}.,.3.0.a.b.b.a.0.9.'./.8.$.V 7.b 6.5.E D C ",
"t ^ d.e.f.g.h.i.<.j.].~.0.k.l.m.m.n.k.o.|.,.,.|.o.k.l.n.e.n.n.n.n.n.n.e.e.l.k.o.9.'.'.9.o.k.l.m.m.l.k.0.~.].j.<.i.h.g.f.e.d.^ t ",
"- ^ 1 T b p.d O X &.~.|.a.l.q.r.r.q.n.s.t.|.|.t.s.n.q.r.r.-.-.-.-.-.-.r.r.q.n.b.8.).).8.b.n.q.r.r.q.l.a.|.~.&.X O d p.b T 1 ^ - ",
"- ^ u.v.w.r x.L y.z.~.3.c.e.r.A.A.r.7 B.;.o.o.;.B.7 r.C.C.r.r.r.r.r.r.A.A.r.e.;.D.).).D.;.e.r.E.E.r.e.c.3.~.z.y.L x.r w.v.u.^ - ",
"- ^ u.v.w.r x.L F.z.~.3.c.e.r.A.A.r.G.m.H.k.k.H.m.G.r.C.C.r.r.r.r.r.r.A.A.r.I.;.D.).).D.;.I.r.E.E.r.e.c.3.~.z.F.L x.r w.v.u.^ - ",
"- ^ u.T J.d r M y.K.~.3.c.n.-.C.C.r.-.q.L.m.m.L.q.-.r.r.r.r.r.r.r.r.r.r.r.-.e.;.D.].].D.;.e.-.A.A.-.n.c.3.~.K.y.M r d J.T u.^ - ",
"- ^ u.T J.d r M y.K.~.3.c.n.-.r.r.r.r.r.r.-.-.r.r.r.r.r.r.r.r.r.r.r.r.r.r.-.m.M.0.3.3.0.M.m.-.C.C.-.n.c.3.~.K.y.M r d J.T u.^ - ",
"- ^ u.T J.d r M y.K.~.3.c.n.G.r.r.r.r.r.r.r.r.r.r.r.r.r.r.r.r.r.r.r.r.r.r.r.L.+.b.N.N.b.+.L.r.C.C.-.n.c.3.~.K.y.M r d J.T u.^ - ",
"- ^ u.T J.d r M y.K.~.3.c.n.G.r.r.r.r.r.r.r.r.r.r.r.r.r.r.r.r.r.r.r.r.r.r.r.q.I.+.k.k.+.I.q.r.C.C.-.n.c.3.~.K.y.M r d J.T u.^ - ",
"- ^ u.T J.d r M y.K.~.3.c.n.-.r.r.r.r.r.r.r.r.r.r.r.r.r.r.r.r.r.r.r.r.r.r.r.-.q.L.m.m.L.q.-.r.r.r.-.n.c.3.~.K.y.M r d J.T u.^ - ",
"- ^ u.T J.d r M y.K.~.3.c.n.-.r.r.r.r.r.r.r.r.r.r.r.r.r.r.r.r.r.r.r.r.r.r.r.r.r.r.-.G.G.q.q.q.G.G.7 l.a.|.~.K.y.M r d J.T u.^ - ",
"- ^ u.T J.d r M y.K.~.3.c.n.-.r.r.r.r.r.r.r.r.r.r.r.r.r.r.r.r.r.r.r.r.r.r.r.r.r.r.r.G.O.P.Q.R.R.S.T.U.V.W.W.K.y.M r d J.T u.^ - ",
"- ^ u.T J.d r M y.K.~.3.c.n.-.r.r.r.r.r.r.r.r.r.r.r.r.r.r.r.r.r.r.r.r.r.r.r.r.r.r.r.G.O.P.X.R.Y.Z.T.`.V.W.W.K.y.M r d J.T u.^ - ",
"- ^ u.T J.d r M y.K.~.3.c.n.-.r.r.r.r.r.r.r.r.r.r.r.r.r.r.r.r.r.r.r.r.r.r.r.r.r.r.r.@.X  +.+++@+#+$+%+&+*+3.z.y.M r d J.T u.^ - ",
"- ^ u.T J.d r M y.K.~.3.c.n.-.r.r.r.r.r.r.r.r.r.r.r.r.r.r.r.r.r.r.r.r.r.r.r.r.q.q.@..+=+-+;+>+,+'+)+!+~+{+]+^+X M r d J.T u.^ - ",
"- ^ u.T J.d r M y.K.~.3.c.n.-.r.r.r.r.r.r.r.r.r.r.r.r.r.r.r.r.r.r.r.r.r.r.r./+O.O.X =+(+_+:+<+[+}+|+1+2+3+4+5+Z N r d J.T u.^ - ",
"- ^ u.T J.d r M y.K.~.3.c.n.-.r.r.r.r.r.r.r.r.r.r.r.r.r.r.r.r.r.r.r.r.r.r.r.G.P.P. +-+_+6+7+8+9+0+a+b+c+d+e+f+g+h+d d J.T u.^ - ",
"- ^ u.T J.d r M y.K.~.3.c.n.-.r.r.r.r.r.r.r.r.r.r.r.r.r.r.r.r.r.r.r.r.r.r.r.q.Q.X..+;+:+7+i+j+k+l+m+n+o+p+q+r+s+t+d d J.T u.^ - ",
"- ^ u.T J.d r M y.K.~.3.c.n.-.r.r.r.r.r.r.r.r.r.r.r.r.r.r.r.r.r.r.r.r.r.r.r.q.u+R.++>+<+8+j+v+w+x+y+z+A+B+C+D+E+F+d d J.T u.^ - ",
"- ^ u.T J.d r M y.K.~.3.c.n.-.r.r.r.r.r.r.r.r.r.r.r.r.r.r.r.r.r.r.r.r.r.r.r.q.R.G+++H+[+9+k+w+I+J+K+L+M+N+O+P+Q+F+d d J.T u.^ - ",
"- ^ u.T J.d r M y.K.~.3.c.n.-.r.r.r.r.r.r.r.r.r.r.r.r.r.r.r.r.r.r.r.r.r.r.r.G.S.T.R+'+}+0+l+x+J+S+T+U+V+N+O+P+Q+F+d d J.T u.^ - ",
"- ^ u.T J.d r M y.K.~.3.c.n.-.r.r.r.r.r.r.r.r.r.r.r.r.r.r.r.r.r.r.r.r.r.r.r.G.W+X+Y+)+Z+a+m+y+K+T+`+ @.@+@@@D+E+F+d d J.T u.^ - ",
"- ^ u.T J.d r M y.K.~.3.c.n.-.r.r.r.r.r.r.r.r.r.r.r.r.r.r.r.r.r.r.r.r.r.r.r.G.#@$@%@&@*@=@-@z+L+U+;@>@,@'@q+r+s+t+d d J.T u.^ - ",
"- ^ u.T J.d r M y.K.~.3.c.n.G.r.r.r.r.r.r.r.r.r.r.r.r.r.r.r.r.r.r.r.r.r.r.r.-.)@)@!@~@{@]@^@/@(@V+_@,@:@<@[@}@g+h+d d J.T u.^ - ",
"- ^ u.T J.d r M y.K.~.3.c.n.G.r.r.r.r.r.r.r.r.r.r.r.r.r.r.r.r.r.r.r.r.r.r.r.r.|@|@1@2@3@4@5@6@N+N++@7@<@8@9@5+Z N r d J.T u.^ - ",
"- ^ u.T J.d r M y.K.~.3.c.n.-.r.r.r.r.r.r.-.-.r.r.r.r.r.r.r.r.r.r.r.r.r.r.r.r.-.r.A.0@a@b@c@d@e@e@d@f@g@h@i@j@X M r d J.T u.^ - ",
"- ^ u.T J.d r M y.K.~.3.c.n.-.r.r.r.-.q.L.m.m.L.q.-.r.r.r.r.r.r.r.r.r.r.r.r.r.r.r.r.q.k@l@m@n@n@n@o@p@q@r@s@&.y.M r d J.T u.^ - ",
"- ^ u.T J.d r M y.K.~.3.c.n.-.C.C.r.q.I.+.k.k.+.I.q.r.r.r.r.r.r.r.r.r.r.r.r.r.r.r.-.m.%.t@u@v@w@w@w@x@y@z@/.*.y.L r d J.T u.^ - ",
"- ^ u.T J.d r M y.K.~.3.c.n.-.C.C.r.L.+.b.N.N.b.+.L.r.r.r.r.r.r.r.r.r.r.r.r.r.r.r.r.L.B.A@B@C@D@D@D@E@v@F@).*.y.L r d J.T u.^ - ",
"- ^ u.T J.d r M y.K.~.3.c.n.-.C.C.-.m.M.0.3.3.0.M.m.-.r.r.r.r.r.r.r.r.r.r.r.r.r.r.r.G.7 m.n.l.l.l.H.`.G@W.!.K.y.M r d J.T u.^ - ",
"- ^ u.T J.d r M y.K.~.3.c.n.-.A.A.-.n.;.D.].].D.;.n.-.r.r.r.r.r.r.r.r.r.r.r.r.r.r.r.r.r.r.-.-.r.r.q.l.a.|.~.K.y.M r d J.T u.^ - ",
"- ^ u.T J.d r M y.K.~.3.c.n.-.A.A.-.n.b.8.).).8.b.n.G.r.r.r.r.r.r.r.r.r.r.r.r.r.r.r.r.r.r.r.r.A.A.r.e.c.3.~.K.y.M r d J.T u.^ - ",
"- ^ u.T J.d r M y.K.~.3.c.n.-.A.A.-.n.b.8.,.,.8.b.n.G.r.r.r.r.r.r.r.r.r.r.r.r.r.r.r.r.r.r.r.r.A.A.r.e.c.3.~.K.y.M r d J.T u.^ - ",
"- ^ u.T J.d r M y.K.~.3.c.n.-.A.A.-.n.b.D.H@H@D.b.n.G.r.r.r.r.r.r.r.r.r.r.r.r.r.r.-.-.r.r.r.r.r.r.-.n.c.3.~.K.y.M r d J.T u.^ - ",
"- ^ u.T J.d I@L y.K.~.3.c.n.-.A.A.-.e.;.D.H@H@D.;.e.-.r.C.r.r.r.r.r.r.r.r.r.r.q.L.m.m.L.q.r.r.C.C.-.n.c.3.~.K.y.L I@d J.T u.^ - ",
"- ^ J@K@L@r e M@W z.~.>.b.m.r.E.E.r.m.;.D.].].D.;.m.r.E.E.A.C.C.C.C.A.A.A.r.G.m.H.k.k.H.m.G.r.E.E.r.m.b.>.~.z.W M@e r L@K@J@^ - ",
"- ^ J@K@L@r e M@W z.~.>.b.m.r.E.E.r.m.;.D.].].D.;.m.r.E.E.A.C.C.C.C.C.A.A.r.7 H.;.o.o.;.H.7 r.E.E.r.m.b.>.~.z.W M@e r L@K@J@^ - ",
"N@^ 1 7 i.O@P@Q@R@*.!.9.o.H.7 -.-.7 l.&.3.,.,.3.&.l.7 q.q.q.q.q.q.q.q.q.q.7 n.;.G@9.9.G@;.n.7 -.-.7 H.o.9.!.*.R@Q@P@O@i.7 1 ^ N@",
"t D S@l@T@U@O V@7 3.W@X@Y@Z@`@ # #`@Z@.#+#@#@#+#.#Z@`@####`@`@`@`@`@`@####`@Z@$#%#&#&#%#$#Z@`@ # #`@Z@Y@X@W@3.7 V@O U@T@l@S@D t ",
"*#Q =#-#;#>#>#,#'#)#!#~#{#]#^#/#/#^#(#_#:#<#<#:#_#(#^#[#[#[#[#[#[#[#[#[#[#^#]#_#:#<#<#:#_#]#^#/#/#^#]#{#~#!#)#'#,#>#>#;#-#=#Q *#",
"}#|#1#2#3#4#5#6#7#8#9#0#a#b#c#d#d#c#e#f#g#h#h#g#f#e#i#c#c#c#c#c#c#c#c#c#c#i#b#8#0#j#j#0#8#b#c#d#d#c#b#a#0#9#8#7#6#5#4#3#2#1#|#}#",
"k#l#m#n#o#p#q#r#s#t#u#v#w#x#y#z#z#y#x#A#B#C#C#B#A#x#y#z#z#y#y#y#y#y#y#z#z#y#x#A#D#C#C#D#A#x#y#z#z#y#x#w#v#u#t#s#r#q#p#o#n#m#l#k#",
"E#F#G#H#I#J#K#L#M#N#O#O#N#P#Q#R#R#Q#P#N#O#O#O#O#N#P#Q#R#R#R#Q#Q#Q#Q#R#R#R#Q#P#N#O#O#O#O#N#P#Q#R#R#Q#P#N#O#O#N#M#L#K#J#I#H#G#F#E#",
"S#T#U#V#W#X#Y#Z#`# $ $ $ $ $.$.$.$.$ $ $ $ $ $ $ $ $.$.$.$.$.$.$.$.$.$.$.$.$ $ $ $ $ $ $ $ $.$.$.$.$ $ $ $ $ $`#Z#Y#X#W#V#U#T#S#",
"+$@$#$$$%$&$*$=$-$;$>$>$;$;$;$;$;$;$;$;$;$>$>$;$;$;$;$;$;$;$;$;$;$;$;$;$;$;$;$;$;$>$>$;$;$;$;$;$;$;$;$;$>$>$;$-$=$*$&$%$$$#$@$+$",
",$'$)$!$~${$]$^$^$/$/$/$/$/$/$/$/$/$/$/$/$/$/$/$/$/$/$/$/$/$/$/$/$/$/$/$/$/$/$/$/$/$/$/$/$/$/$/$/$/$/$/$/$/$/$^$^$]${$~$!$)$'$,$",
"($_$:$<$[$]$}$. . |$|$|$|$|$|$|$|$|$|$|$|$|$|$|$|$|$|$|$|$|$|$|$|$|$|$|$|$|$|$|$|$|$|$|$|$|$|$|$|$|$|$|$|$|$|$. . }$]$[$<$:$_$($",
"($1$2$3$4$^$. 5$5$6$7$7$7$7$7$7$7$7$7$7$7$7$7$7$7$7$7$7$7$7$7$7$7$7$7$7$7$7$7$7$7$7$7$7$7$7$7$7$7$7$7$7$7$7$6$5$5$. ^$4$3$2$1$($"};
