/* XPM */
static char * wall_xpm[] = {
"11 11 5 1",
" 	c #2C9B35",
".	c #B78A62",
"+	c #E8CFA6",
"@	c #AA7959",
"#	c #C49A6C",
"   ....    ",
"  .++++.   ",
"  .++++.   ",
"  @#++#@   ",
"  @####@   ",
"  @####@   ",
"  @####@   ",
"  @####@   ",
"  @.##.@   ",
"  @....@   ",
"   ....    "};
